<mxfile host="app.diagrams.net" modified="2023-04-10T08:42:37.316Z" agent="Mozilla/5.0 (X11; Ubuntu; Linux x86_64; rv:109.0) Gecko/20100101 Firefox/111.0" etag="VahIQAvsV9AEynyZTIGx" version="21.1.5" type="device">
  <diagram name="Page-1" id="lXrtjSVwh-O6SNVQw-Es">
    <mxGraphModel dx="1442" dy="816" grid="1" gridSize="10" guides="1" tooltips="1" connect="1" arrows="1" fold="1" page="1" pageScale="1" pageWidth="1100" pageHeight="1700" math="0" shadow="0">
      <root>
        <mxCell id="0" />
        <mxCell id="1" parent="0" />
        <mxCell id="Q3GWjqxFdQ4QEtEUs8pQ-1" value="" style="ellipse;whiteSpace=wrap;html=1;aspect=fixed;" vertex="1" parent="1">
          <mxGeometry x="160" y="120" width="40" height="40" as="geometry" />
        </mxCell>
        <mxCell id="Q3GWjqxFdQ4QEtEUs8pQ-5" style="edgeStyle=orthogonalEdgeStyle;rounded=0;orthogonalLoop=1;jettySize=auto;html=1;exitX=0.5;exitY=1;exitDx=0;exitDy=0;entryX=0.5;entryY=0;entryDx=0;entryDy=0;" edge="1" parent="1" source="Q3GWjqxFdQ4QEtEUs8pQ-2" target="Q3GWjqxFdQ4QEtEUs8pQ-3">
          <mxGeometry relative="1" as="geometry" />
        </mxCell>
        <mxCell id="Q3GWjqxFdQ4QEtEUs8pQ-2" value="S" style="ellipse;whiteSpace=wrap;html=1;aspect=fixed;fillColor=none;" vertex="1" parent="1">
          <mxGeometry x="157.5" y="117.5" width="45" height="45" as="geometry" />
        </mxCell>
        <mxCell id="Q3GWjqxFdQ4QEtEUs8pQ-3" value="INP" style="ellipse;whiteSpace=wrap;html=1;" vertex="1" parent="1">
          <mxGeometry x="145" y="190" width="70" height="40" as="geometry" />
        </mxCell>
        <mxCell id="Q3GWjqxFdQ4QEtEUs8pQ-7" value="" style="endArrow=none;html=1;rounded=0;" edge="1" parent="1" source="Q3GWjqxFdQ4QEtEUs8pQ-8">
          <mxGeometry width="50" height="50" relative="1" as="geometry">
            <mxPoint x="180" y="780.6896551724138" as="sourcePoint" />
            <mxPoint x="180" y="230" as="targetPoint" />
          </mxGeometry>
        </mxCell>
        <mxCell id="Q3GWjqxFdQ4QEtEUs8pQ-9" value="" style="endArrow=none;html=1;rounded=0;" edge="1" parent="1" target="Q3GWjqxFdQ4QEtEUs8pQ-8">
          <mxGeometry width="50" height="50" relative="1" as="geometry">
            <mxPoint x="180" y="840" as="sourcePoint" />
            <mxPoint x="180" y="230" as="targetPoint" />
          </mxGeometry>
        </mxCell>
        <mxCell id="Q3GWjqxFdQ4QEtEUs8pQ-8" value="" style="ellipse;whiteSpace=wrap;html=1;aspect=fixed;gradientColor=none;fillColor=#000000;" vertex="1" parent="1">
          <mxGeometry x="175" y="245" width="10" height="10" as="geometry" />
        </mxCell>
        <mxCell id="Q3GWjqxFdQ4QEtEUs8pQ-10" value="dg" style="endArrow=classic;html=1;rounded=0;" edge="1" parent="1">
          <mxGeometry width="50" height="50" relative="1" as="geometry">
            <mxPoint x="180" y="328.76" as="sourcePoint" />
            <mxPoint x="240" y="328.76" as="targetPoint" />
          </mxGeometry>
        </mxCell>
        <mxCell id="Q3GWjqxFdQ4QEtEUs8pQ-11" value="CNS" style="ellipse;whiteSpace=wrap;html=1;" vertex="1" parent="1">
          <mxGeometry x="240" y="308.76" width="70" height="40" as="geometry" />
        </mxCell>
        <mxCell id="Q3GWjqxFdQ4QEtEUs8pQ-14" value="" style="endArrow=classic;html=1;rounded=0;exitX=1;exitY=0.5;exitDx=0;exitDy=0;edgeStyle=orthogonalEdgeStyle;curved=1;entryX=0.714;entryY=0;entryDx=0;entryDy=0;entryPerimeter=0;" edge="1" parent="1" source="Q3GWjqxFdQ4QEtEUs8pQ-11" target="Q3GWjqxFdQ4QEtEUs8pQ-11">
          <mxGeometry width="50" height="50" relative="1" as="geometry">
            <mxPoint x="330" y="320" as="sourcePoint" />
            <mxPoint x="380" y="260" as="targetPoint" />
            <Array as="points">
              <mxPoint x="340" y="220" />
            </Array>
          </mxGeometry>
        </mxCell>
        <mxCell id="Q3GWjqxFdQ4QEtEUs8pQ-15" value="dg" style="edgeLabel;html=1;align=center;verticalAlign=middle;resizable=0;points=[];" vertex="1" connectable="0" parent="Q3GWjqxFdQ4QEtEUs8pQ-14">
          <mxGeometry x="-0.4489" y="6" relative="1" as="geometry">
            <mxPoint as="offset" />
          </mxGeometry>
        </mxCell>
        <mxCell id="Q3GWjqxFdQ4QEtEUs8pQ-16" value="" style="endArrow=classic;html=1;rounded=0;" edge="1" parent="1">
          <mxGeometry width="50" height="50" relative="1" as="geometry">
            <mxPoint x="310" y="328.42" as="sourcePoint" />
            <mxPoint x="400" y="328.76" as="targetPoint" />
          </mxGeometry>
        </mxCell>
        <mxCell id="Q3GWjqxFdQ4QEtEUs8pQ-30" value="other" style="edgeLabel;html=1;align=center;verticalAlign=middle;resizable=0;points=[];" vertex="1" connectable="0" parent="Q3GWjqxFdQ4QEtEUs8pQ-16">
          <mxGeometry x="-0.1335" y="2" relative="1" as="geometry">
            <mxPoint as="offset" />
          </mxGeometry>
        </mxCell>
        <mxCell id="Q3GWjqxFdQ4QEtEUs8pQ-17" value="OUT" style="ellipse;whiteSpace=wrap;html=1;" vertex="1" parent="1">
          <mxGeometry x="400" y="308.76" width="70" height="40" as="geometry" />
        </mxCell>
        <mxCell id="Q3GWjqxFdQ4QEtEUs8pQ-18" value="" style="endArrow=classic;html=1;rounded=0;startSize=2;" edge="1" parent="1">
          <mxGeometry width="50" height="50" relative="1" as="geometry">
            <mxPoint x="440" y="250" as="sourcePoint" />
            <mxPoint x="185" y="249.76" as="targetPoint" />
          </mxGeometry>
        </mxCell>
        <mxCell id="Q3GWjqxFdQ4QEtEUs8pQ-19" value="" style="endArrow=none;html=1;rounded=0;exitX=0.5;exitY=0;exitDx=0;exitDy=0;endSize=10;" edge="1" parent="1" source="Q3GWjqxFdQ4QEtEUs8pQ-17">
          <mxGeometry width="50" height="50" relative="1" as="geometry">
            <mxPoint x="435" y="302.76" as="sourcePoint" />
            <mxPoint x="435" y="250" as="targetPoint" />
          </mxGeometry>
        </mxCell>
        <mxCell id="Q3GWjqxFdQ4QEtEUs8pQ-20" value="" style="endArrow=classic;html=1;rounded=0;" edge="1" parent="1">
          <mxGeometry width="50" height="50" relative="1" as="geometry">
            <mxPoint x="180" y="399.76" as="sourcePoint" />
            <mxPoint x="240" y="399.76" as="targetPoint" />
          </mxGeometry>
        </mxCell>
        <mxCell id="Q3GWjqxFdQ4QEtEUs8pQ-34" value="lt" style="edgeLabel;html=1;align=center;verticalAlign=middle;resizable=0;points=[];" vertex="1" connectable="0" parent="Q3GWjqxFdQ4QEtEUs8pQ-20">
          <mxGeometry x="-0.3619" relative="1" as="geometry">
            <mxPoint as="offset" />
          </mxGeometry>
        </mxCell>
        <mxCell id="Q3GWjqxFdQ4QEtEUs8pQ-21" value="IDN" style="ellipse;whiteSpace=wrap;html=1;" vertex="1" parent="1">
          <mxGeometry x="240" y="379.76" width="70" height="40" as="geometry" />
        </mxCell>
        <mxCell id="Q3GWjqxFdQ4QEtEUs8pQ-28" value="" style="endArrow=classic;html=1;rounded=0;edgeStyle=orthogonalEdgeStyle;curved=1;exitX=1;exitY=0.5;exitDx=0;exitDy=0;entryX=0.836;entryY=0.039;entryDx=0;entryDy=0;entryPerimeter=0;" edge="1" parent="1" source="Q3GWjqxFdQ4QEtEUs8pQ-21" target="Q3GWjqxFdQ4QEtEUs8pQ-21">
          <mxGeometry width="50" height="50" relative="1" as="geometry">
            <mxPoint x="310" y="398.76" as="sourcePoint" />
            <mxPoint x="360" y="348.76" as="targetPoint" />
            <Array as="points">
              <mxPoint x="370" y="320" />
            </Array>
          </mxGeometry>
        </mxCell>
        <mxCell id="Q3GWjqxFdQ4QEtEUs8pQ-29" value="lt, dg" style="edgeLabel;html=1;align=center;verticalAlign=middle;resizable=0;points=[];" vertex="1" connectable="0" parent="Q3GWjqxFdQ4QEtEUs8pQ-28">
          <mxGeometry x="0.5304" y="4" relative="1" as="geometry">
            <mxPoint as="offset" />
          </mxGeometry>
        </mxCell>
        <mxCell id="Q3GWjqxFdQ4QEtEUs8pQ-32" value="" style="endArrow=classic;html=1;rounded=0;exitX=1;exitY=0.5;exitDx=0;exitDy=0;" edge="1" parent="1" source="Q3GWjqxFdQ4QEtEUs8pQ-21">
          <mxGeometry width="50" height="50" relative="1" as="geometry">
            <mxPoint x="480" y="350" as="sourcePoint" />
            <mxPoint x="400" y="400" as="targetPoint" />
            <Array as="points">
              <mxPoint x="400" y="400" />
            </Array>
          </mxGeometry>
        </mxCell>
        <mxCell id="Q3GWjqxFdQ4QEtEUs8pQ-33" value="OUT" style="ellipse;whiteSpace=wrap;html=1;" vertex="1" parent="1">
          <mxGeometry x="400" y="379.76" width="70" height="40" as="geometry" />
        </mxCell>
        <mxCell id="Q3GWjqxFdQ4QEtEUs8pQ-35" value="" style="endArrow=none;html=1;rounded=0;exitX=1;exitY=0.5;exitDx=0;exitDy=0;" edge="1" parent="1" source="Q3GWjqxFdQ4QEtEUs8pQ-33">
          <mxGeometry width="50" height="50" relative="1" as="geometry">
            <mxPoint x="500" y="410" as="sourcePoint" />
            <mxPoint x="480" y="400" as="targetPoint" />
          </mxGeometry>
        </mxCell>
        <mxCell id="Q3GWjqxFdQ4QEtEUs8pQ-36" value="" style="endArrow=none;html=1;rounded=0;" edge="1" parent="1">
          <mxGeometry width="50" height="50" relative="1" as="geometry">
            <mxPoint x="480" y="400" as="sourcePoint" />
            <mxPoint x="480" y="250" as="targetPoint" />
          </mxGeometry>
        </mxCell>
        <mxCell id="Q3GWjqxFdQ4QEtEUs8pQ-37" value="" style="endArrow=classic;html=1;rounded=0;" edge="1" parent="1">
          <mxGeometry width="50" height="50" relative="1" as="geometry">
            <mxPoint x="480" y="250" as="sourcePoint" />
            <mxPoint x="440" y="250" as="targetPoint" />
          </mxGeometry>
        </mxCell>
        <mxCell id="Q3GWjqxFdQ4QEtEUs8pQ-38" value="DM" style="ellipse;whiteSpace=wrap;html=1;" vertex="1" parent="1">
          <mxGeometry x="241" y="460.76" width="70" height="40" as="geometry" />
        </mxCell>
        <mxCell id="Q3GWjqxFdQ4QEtEUs8pQ-39" value="" style="endArrow=classic;html=1;rounded=0;" edge="1" parent="1">
          <mxGeometry width="50" height="50" relative="1" as="geometry">
            <mxPoint x="181" y="479.76" as="sourcePoint" />
            <mxPoint x="241" y="479.76" as="targetPoint" />
          </mxGeometry>
        </mxCell>
        <mxCell id="Q3GWjqxFdQ4QEtEUs8pQ-40" value="dm" style="edgeLabel;html=1;align=center;verticalAlign=middle;resizable=0;points=[];" vertex="1" connectable="0" parent="Q3GWjqxFdQ4QEtEUs8pQ-39">
          <mxGeometry x="-0.3619" relative="1" as="geometry">
            <mxPoint as="offset" />
          </mxGeometry>
        </mxCell>
        <mxCell id="Q3GWjqxFdQ4QEtEUs8pQ-42" value="" style="endArrow=classic;html=1;rounded=0;exitX=1;exitY=0.5;exitDx=0;exitDy=0;" edge="1" parent="1" source="Q3GWjqxFdQ4QEtEUs8pQ-38">
          <mxGeometry width="50" height="50" relative="1" as="geometry">
            <mxPoint x="480" y="430" as="sourcePoint" />
            <mxPoint x="400" y="480" as="targetPoint" />
          </mxGeometry>
        </mxCell>
        <mxCell id="Q3GWjqxFdQ4QEtEUs8pQ-43" value="OUT" style="ellipse;whiteSpace=wrap;html=1;" vertex="1" parent="1">
          <mxGeometry x="400" y="459.76" width="70" height="40" as="geometry" />
        </mxCell>
        <mxCell id="Q3GWjqxFdQ4QEtEUs8pQ-44" value="" style="endArrow=none;html=1;rounded=0;exitX=1;exitY=0.5;exitDx=0;exitDy=0;" edge="1" parent="1" source="Q3GWjqxFdQ4QEtEUs8pQ-43">
          <mxGeometry width="50" height="50" relative="1" as="geometry">
            <mxPoint x="470" y="420" as="sourcePoint" />
            <mxPoint x="520" y="480" as="targetPoint" />
          </mxGeometry>
        </mxCell>
        <mxCell id="Q3GWjqxFdQ4QEtEUs8pQ-45" value="" style="endArrow=none;html=1;rounded=0;" edge="1" parent="1">
          <mxGeometry width="50" height="50" relative="1" as="geometry">
            <mxPoint x="520" y="480" as="sourcePoint" />
            <mxPoint x="520" y="250" as="targetPoint" />
          </mxGeometry>
        </mxCell>
        <mxCell id="Q3GWjqxFdQ4QEtEUs8pQ-46" value="" style="endArrow=classic;html=1;rounded=0;" edge="1" parent="1">
          <mxGeometry width="50" height="50" relative="1" as="geometry">
            <mxPoint x="520" y="250" as="sourcePoint" />
            <mxPoint x="480" y="250" as="targetPoint" />
          </mxGeometry>
        </mxCell>
        <mxCell id="Q3GWjqxFdQ4QEtEUs8pQ-51" value="WS" style="ellipse;whiteSpace=wrap;html=1;" vertex="1" parent="1">
          <mxGeometry x="241" y="540" width="70" height="40" as="geometry" />
        </mxCell>
        <mxCell id="Q3GWjqxFdQ4QEtEUs8pQ-52" value="" style="endArrow=classic;html=1;rounded=0;" edge="1" parent="1">
          <mxGeometry width="50" height="50" relative="1" as="geometry">
            <mxPoint x="181" y="559.71" as="sourcePoint" />
            <mxPoint x="241" y="559.71" as="targetPoint" />
          </mxGeometry>
        </mxCell>
        <mxCell id="Q3GWjqxFdQ4QEtEUs8pQ-53" value="ws" style="edgeLabel;html=1;align=center;verticalAlign=middle;resizable=0;points=[];" vertex="1" connectable="0" parent="Q3GWjqxFdQ4QEtEUs8pQ-52">
          <mxGeometry x="-0.3619" relative="1" as="geometry">
            <mxPoint as="offset" />
          </mxGeometry>
        </mxCell>
        <mxCell id="Q3GWjqxFdQ4QEtEUs8pQ-54" value="" style="endArrow=classic;html=1;rounded=0;exitX=1;exitY=0.5;exitDx=0;exitDy=0;edgeStyle=orthogonalEdgeStyle;curved=1;entryX=0.661;entryY=0.043;entryDx=0;entryDy=0;entryPerimeter=0;" edge="1" parent="1" source="Q3GWjqxFdQ4QEtEUs8pQ-51" target="Q3GWjqxFdQ4QEtEUs8pQ-51">
          <mxGeometry width="50" height="50" relative="1" as="geometry">
            <mxPoint x="380" y="520" as="sourcePoint" />
            <mxPoint x="360" y="530" as="targetPoint" />
            <Array as="points">
              <mxPoint x="360" y="470" />
            </Array>
          </mxGeometry>
        </mxCell>
        <mxCell id="Q3GWjqxFdQ4QEtEUs8pQ-55" value="ws" style="edgeLabel;html=1;align=center;verticalAlign=middle;resizable=0;points=[];" vertex="1" connectable="0" parent="Q3GWjqxFdQ4QEtEUs8pQ-54">
          <mxGeometry x="-0.5061" y="6" relative="1" as="geometry">
            <mxPoint as="offset" />
          </mxGeometry>
        </mxCell>
        <mxCell id="Q3GWjqxFdQ4QEtEUs8pQ-56" value="" style="endArrow=none;html=1;rounded=0;exitX=1;exitY=0.5;exitDx=0;exitDy=0;endFill=0;" edge="1" parent="1" source="Q3GWjqxFdQ4QEtEUs8pQ-51">
          <mxGeometry width="50" height="50" relative="1" as="geometry">
            <mxPoint x="380" y="520" as="sourcePoint" />
            <mxPoint x="560" y="560" as="targetPoint" />
          </mxGeometry>
        </mxCell>
        <mxCell id="Q3GWjqxFdQ4QEtEUs8pQ-57" value="other" style="edgeLabel;html=1;align=center;verticalAlign=middle;resizable=0;points=[];" vertex="1" connectable="0" parent="Q3GWjqxFdQ4QEtEUs8pQ-56">
          <mxGeometry x="-0.4469" y="1" relative="1" as="geometry">
            <mxPoint as="offset" />
          </mxGeometry>
        </mxCell>
        <mxCell id="Q3GWjqxFdQ4QEtEUs8pQ-59" value="" style="endArrow=none;html=1;rounded=0;" edge="1" parent="1">
          <mxGeometry width="50" height="50" relative="1" as="geometry">
            <mxPoint x="560" y="560" as="sourcePoint" />
            <mxPoint x="560" y="250" as="targetPoint" />
          </mxGeometry>
        </mxCell>
        <mxCell id="Q3GWjqxFdQ4QEtEUs8pQ-60" value="" style="endArrow=classic;html=1;rounded=0;" edge="1" parent="1">
          <mxGeometry width="50" height="50" relative="1" as="geometry">
            <mxPoint x="560" y="250" as="sourcePoint" />
            <mxPoint x="520" y="250" as="targetPoint" />
          </mxGeometry>
        </mxCell>
        <mxCell id="Q3GWjqxFdQ4QEtEUs8pQ-61" value="BCOM" style="ellipse;whiteSpace=wrap;html=1;" vertex="1" parent="1">
          <mxGeometry x="241" y="619" width="70" height="40" as="geometry" />
        </mxCell>
        <mxCell id="Q3GWjqxFdQ4QEtEUs8pQ-62" value="&lt;div&gt;com&lt;/div&gt;&lt;div&gt;*&lt;/div&gt;" style="endArrow=classic;html=1;rounded=0;" edge="1" parent="1">
          <mxGeometry width="50" height="50" relative="1" as="geometry">
            <mxPoint x="180" y="638.71" as="sourcePoint" />
            <mxPoint x="240" y="638.71" as="targetPoint" />
          </mxGeometry>
        </mxCell>
        <mxCell id="Q3GWjqxFdQ4QEtEUs8pQ-64" value="" style="endArrow=classic;html=1;rounded=0;exitX=0.5;exitY=0;exitDx=0;exitDy=0;edgeStyle=orthogonalEdgeStyle;entryX=0.5;entryY=1;entryDx=0;entryDy=0;elbow=vertical;" edge="1" parent="1" source="Q3GWjqxFdQ4QEtEUs8pQ-61" target="Q3GWjqxFdQ4QEtEUs8pQ-38">
          <mxGeometry width="50" height="50" relative="1" as="geometry">
            <mxPoint x="430" y="600" as="sourcePoint" />
            <mxPoint x="480" y="550" as="targetPoint" />
            <Array as="points">
              <mxPoint x="220" y="619" />
              <mxPoint x="220" y="501" />
            </Array>
          </mxGeometry>
        </mxCell>
        <mxCell id="Q3GWjqxFdQ4QEtEUs8pQ-65" value="other" style="edgeLabel;html=1;align=center;verticalAlign=middle;resizable=0;points=[];" vertex="1" connectable="0" parent="Q3GWjqxFdQ4QEtEUs8pQ-64">
          <mxGeometry x="-0.59" y="2" relative="1" as="geometry">
            <mxPoint as="offset" />
          </mxGeometry>
        </mxCell>
        <mxCell id="Q3GWjqxFdQ4QEtEUs8pQ-66" value="COM" style="ellipse;whiteSpace=wrap;html=1;" vertex="1" parent="1">
          <mxGeometry x="348" y="619" width="70" height="40" as="geometry" />
        </mxCell>
        <mxCell id="Q3GWjqxFdQ4QEtEUs8pQ-67" value="&lt;div&gt;ECOM&lt;/div&gt;" style="ellipse;whiteSpace=wrap;html=1;" vertex="1" parent="1">
          <mxGeometry x="458" y="619" width="70" height="40" as="geometry" />
        </mxCell>
        <mxCell id="Q3GWjqxFdQ4QEtEUs8pQ-68" value="" style="endArrow=classic;html=1;rounded=0;exitX=1;exitY=0.5;exitDx=0;exitDy=0;entryX=0;entryY=0.5;entryDx=0;entryDy=0;" edge="1" parent="1" source="Q3GWjqxFdQ4QEtEUs8pQ-61" target="Q3GWjqxFdQ4QEtEUs8pQ-66">
          <mxGeometry width="50" height="50" relative="1" as="geometry">
            <mxPoint x="430" y="600" as="sourcePoint" />
            <mxPoint x="480" y="550" as="targetPoint" />
          </mxGeometry>
        </mxCell>
        <mxCell id="Q3GWjqxFdQ4QEtEUs8pQ-69" value="/" style="edgeLabel;html=1;align=center;verticalAlign=middle;resizable=0;points=[];" vertex="1" connectable="0" parent="Q3GWjqxFdQ4QEtEUs8pQ-68">
          <mxGeometry x="-0.668" y="-1" relative="1" as="geometry">
            <mxPoint as="offset" />
          </mxGeometry>
        </mxCell>
        <mxCell id="Q3GWjqxFdQ4QEtEUs8pQ-70" value="" style="endArrow=classic;html=1;rounded=0;exitX=0;exitY=0;exitDx=0;exitDy=0;edgeStyle=orthogonalEdgeStyle;curved=1;entryX=0.5;entryY=0;entryDx=0;entryDy=0;" edge="1" parent="1" source="Q3GWjqxFdQ4QEtEUs8pQ-66" target="Q3GWjqxFdQ4QEtEUs8pQ-66">
          <mxGeometry width="50" height="50" relative="1" as="geometry">
            <mxPoint x="510" y="630" as="sourcePoint" />
            <mxPoint x="358" y="600" as="targetPoint" />
            <Array as="points">
              <mxPoint x="330" y="580" />
            </Array>
          </mxGeometry>
        </mxCell>
        <mxCell id="Q3GWjqxFdQ4QEtEUs8pQ-71" value="other" style="edgeLabel;html=1;align=center;verticalAlign=middle;resizable=0;points=[];" vertex="1" connectable="0" parent="Q3GWjqxFdQ4QEtEUs8pQ-70">
          <mxGeometry x="-0.5816" y="-4" relative="1" as="geometry">
            <mxPoint as="offset" />
          </mxGeometry>
        </mxCell>
        <mxCell id="Q3GWjqxFdQ4QEtEUs8pQ-72" value="" style="endArrow=classic;html=1;rounded=0;exitX=1;exitY=0.5;exitDx=0;exitDy=0;entryX=0;entryY=0.5;entryDx=0;entryDy=0;" edge="1" parent="1" source="Q3GWjqxFdQ4QEtEUs8pQ-66" target="Q3GWjqxFdQ4QEtEUs8pQ-67">
          <mxGeometry width="50" height="50" relative="1" as="geometry">
            <mxPoint x="510" y="580" as="sourcePoint" />
            <mxPoint x="560" y="530" as="targetPoint" />
          </mxGeometry>
        </mxCell>
        <mxCell id="Q3GWjqxFdQ4QEtEUs8pQ-73" value="/" style="edgeLabel;html=1;align=center;verticalAlign=middle;resizable=0;points=[];" vertex="1" connectable="0" parent="Q3GWjqxFdQ4QEtEUs8pQ-72">
          <mxGeometry x="-0.1833" relative="1" as="geometry">
            <mxPoint as="offset" />
          </mxGeometry>
        </mxCell>
        <mxCell id="Q3GWjqxFdQ4QEtEUs8pQ-74" value="" style="endArrow=classic;html=1;rounded=0;entryX=1;entryY=0;entryDx=0;entryDy=0;edgeStyle=orthogonalEdgeStyle;curved=1;exitX=0;exitY=0;exitDx=0;exitDy=0;" edge="1" parent="1" source="Q3GWjqxFdQ4QEtEUs8pQ-67" target="Q3GWjqxFdQ4QEtEUs8pQ-66">
          <mxGeometry width="50" height="50" relative="1" as="geometry">
            <mxPoint x="490" y="600" as="sourcePoint" />
            <mxPoint x="550" y="530" as="targetPoint" />
            <Array as="points">
              <mxPoint x="468" y="580" />
              <mxPoint x="410" y="580" />
              <mxPoint x="410" y="625" />
            </Array>
          </mxGeometry>
        </mxCell>
        <mxCell id="Q3GWjqxFdQ4QEtEUs8pQ-75" value="other" style="edgeLabel;html=1;align=center;verticalAlign=middle;resizable=0;points=[];" vertex="1" connectable="0" parent="Q3GWjqxFdQ4QEtEUs8pQ-74">
          <mxGeometry x="-0.084" y="-1" relative="1" as="geometry">
            <mxPoint as="offset" />
          </mxGeometry>
        </mxCell>
        <mxCell id="Q3GWjqxFdQ4QEtEUs8pQ-76" value="" style="endArrow=classic;html=1;rounded=0;exitX=1;exitY=0;exitDx=0;exitDy=0;entryX=0.5;entryY=0;entryDx=0;entryDy=0;edgeStyle=orthogonalEdgeStyle;curved=1;" edge="1" parent="1" source="Q3GWjqxFdQ4QEtEUs8pQ-67" target="Q3GWjqxFdQ4QEtEUs8pQ-67">
          <mxGeometry width="50" height="50" relative="1" as="geometry">
            <mxPoint x="500" y="580" as="sourcePoint" />
            <mxPoint x="550" y="530" as="targetPoint" />
            <Array as="points">
              <mxPoint x="530" y="560" />
            </Array>
          </mxGeometry>
        </mxCell>
        <mxCell id="Q3GWjqxFdQ4QEtEUs8pQ-77" value="/" style="edgeLabel;html=1;align=center;verticalAlign=middle;resizable=0;points=[];" vertex="1" connectable="0" parent="Q3GWjqxFdQ4QEtEUs8pQ-76">
          <mxGeometry x="-0.5173" y="6" relative="1" as="geometry">
            <mxPoint as="offset" />
          </mxGeometry>
        </mxCell>
        <mxCell id="Q3GWjqxFdQ4QEtEUs8pQ-79" value="" style="endArrow=none;html=1;rounded=0;exitX=1;exitY=0.5;exitDx=0;exitDy=0;" edge="1" parent="1" source="Q3GWjqxFdQ4QEtEUs8pQ-67">
          <mxGeometry width="50" height="50" relative="1" as="geometry">
            <mxPoint x="480" y="540" as="sourcePoint" />
            <mxPoint x="600" y="640" as="targetPoint" />
          </mxGeometry>
        </mxCell>
        <mxCell id="Q3GWjqxFdQ4QEtEUs8pQ-80" value="*" style="edgeLabel;html=1;align=center;verticalAlign=middle;resizable=0;points=[];" vertex="1" connectable="0" parent="Q3GWjqxFdQ4QEtEUs8pQ-79">
          <mxGeometry x="-0.1961" y="-1" relative="1" as="geometry">
            <mxPoint as="offset" />
          </mxGeometry>
        </mxCell>
        <mxCell id="Q3GWjqxFdQ4QEtEUs8pQ-81" value="" style="endArrow=none;html=1;rounded=0;" edge="1" parent="1">
          <mxGeometry width="50" height="50" relative="1" as="geometry">
            <mxPoint x="600" y="640" as="sourcePoint" />
            <mxPoint x="600" y="250" as="targetPoint" />
          </mxGeometry>
        </mxCell>
        <mxCell id="Q3GWjqxFdQ4QEtEUs8pQ-82" value="" style="endArrow=classic;html=1;rounded=0;" edge="1" parent="1">
          <mxGeometry width="50" height="50" relative="1" as="geometry">
            <mxPoint x="600" y="250" as="sourcePoint" />
            <mxPoint x="560" y="250" as="targetPoint" />
          </mxGeometry>
        </mxCell>
        <mxCell id="Q3GWjqxFdQ4QEtEUs8pQ-83" value="ERR" style="ellipse;whiteSpace=wrap;html=1;" vertex="1" parent="1">
          <mxGeometry x="400" y="700" width="70" height="40" as="geometry" />
        </mxCell>
        <mxCell id="Q3GWjqxFdQ4QEtEUs8pQ-85" value="" style="endArrow=classic;html=1;rounded=0;exitX=0.448;exitY=1.005;exitDx=0;exitDy=0;exitPerimeter=0;entryX=0;entryY=0.5;entryDx=0;entryDy=0;edgeStyle=orthogonalEdgeStyle;curved=1;" edge="1" parent="1" source="Q3GWjqxFdQ4QEtEUs8pQ-61" target="Q3GWjqxFdQ4QEtEUs8pQ-83">
          <mxGeometry width="50" height="50" relative="1" as="geometry">
            <mxPoint x="480" y="600" as="sourcePoint" />
            <mxPoint x="530" y="550" as="targetPoint" />
          </mxGeometry>
        </mxCell>
        <mxCell id="Q3GWjqxFdQ4QEtEUs8pQ-86" value="other" style="edgeLabel;html=1;align=center;verticalAlign=middle;resizable=0;points=[];" vertex="1" connectable="0" parent="Q3GWjqxFdQ4QEtEUs8pQ-85">
          <mxGeometry x="0.171" y="9" relative="1" as="geometry">
            <mxPoint as="offset" />
          </mxGeometry>
        </mxCell>
        <mxCell id="Q3GWjqxFdQ4QEtEUs8pQ-87" value="" style="endArrow=classic;html=1;rounded=0;exitX=0.457;exitY=1.04;exitDx=0;exitDy=0;exitPerimeter=0;entryX=0;entryY=0;entryDx=0;entryDy=0;edgeStyle=orthogonalEdgeStyle;curved=1;" edge="1" parent="1" source="Q3GWjqxFdQ4QEtEUs8pQ-66" target="Q3GWjqxFdQ4QEtEUs8pQ-83">
          <mxGeometry width="50" height="50" relative="1" as="geometry">
            <mxPoint x="480" y="600" as="sourcePoint" />
            <mxPoint x="530" y="550" as="targetPoint" />
            <Array as="points">
              <mxPoint x="380" y="700" />
              <mxPoint x="410" y="700" />
            </Array>
          </mxGeometry>
        </mxCell>
        <mxCell id="Q3GWjqxFdQ4QEtEUs8pQ-88" value="eof" style="edgeLabel;html=1;align=center;verticalAlign=middle;resizable=0;points=[];" vertex="1" connectable="0" parent="Q3GWjqxFdQ4QEtEUs8pQ-87">
          <mxGeometry x="-0.3435" y="2" relative="1" as="geometry">
            <mxPoint as="offset" />
          </mxGeometry>
        </mxCell>
        <mxCell id="Q3GWjqxFdQ4QEtEUs8pQ-89" value="" style="endArrow=classic;html=1;rounded=0;exitX=0.546;exitY=1.005;exitDx=0;exitDy=0;exitPerimeter=0;entryX=1;entryY=0;entryDx=0;entryDy=0;" edge="1" parent="1" source="Q3GWjqxFdQ4QEtEUs8pQ-67" target="Q3GWjqxFdQ4QEtEUs8pQ-83">
          <mxGeometry width="50" height="50" relative="1" as="geometry">
            <mxPoint x="490" y="660" as="sourcePoint" />
            <mxPoint x="530" y="550" as="targetPoint" />
          </mxGeometry>
        </mxCell>
        <mxCell id="Q3GWjqxFdQ4QEtEUs8pQ-90" value="eof" style="edgeLabel;html=1;align=center;verticalAlign=middle;resizable=0;points=[];" vertex="1" connectable="0" parent="Q3GWjqxFdQ4QEtEUs8pQ-89">
          <mxGeometry x="-0.4497" relative="1" as="geometry">
            <mxPoint as="offset" />
          </mxGeometry>
        </mxCell>
        <mxCell id="Q3GWjqxFdQ4QEtEUs8pQ-91" value="" style="endArrow=none;html=1;rounded=0;exitX=1;exitY=0.5;exitDx=0;exitDy=0;" edge="1" parent="1" source="Q3GWjqxFdQ4QEtEUs8pQ-83">
          <mxGeometry width="50" height="50" relative="1" as="geometry">
            <mxPoint x="480" y="600" as="sourcePoint" />
            <mxPoint x="600" y="720" as="targetPoint" />
          </mxGeometry>
        </mxCell>
        <mxCell id="Q3GWjqxFdQ4QEtEUs8pQ-92" value="" style="endArrow=none;html=1;rounded=0;" edge="1" parent="1">
          <mxGeometry width="50" height="50" relative="1" as="geometry">
            <mxPoint x="600" y="720" as="sourcePoint" />
            <mxPoint x="600" y="640" as="targetPoint" />
          </mxGeometry>
        </mxCell>
        <mxCell id="Q3GWjqxFdQ4QEtEUs8pQ-93" value="ERR" style="ellipse;whiteSpace=wrap;html=1;" vertex="1" parent="1">
          <mxGeometry x="230" y="740" width="70" height="40" as="geometry" />
        </mxCell>
        <mxCell id="Q3GWjqxFdQ4QEtEUs8pQ-94" value="err" style="endArrow=classic;html=1;rounded=0;entryX=0;entryY=0.5;entryDx=0;entryDy=0;" edge="1" parent="1" target="Q3GWjqxFdQ4QEtEUs8pQ-93">
          <mxGeometry width="50" height="50" relative="1" as="geometry">
            <mxPoint x="180" y="760" as="sourcePoint" />
            <mxPoint x="520" y="620" as="targetPoint" />
          </mxGeometry>
        </mxCell>
        <mxCell id="Q3GWjqxFdQ4QEtEUs8pQ-95" value="" style="endArrow=none;html=1;rounded=0;exitX=1;exitY=0.5;exitDx=0;exitDy=0;" edge="1" parent="1" source="Q3GWjqxFdQ4QEtEUs8pQ-93">
          <mxGeometry width="50" height="50" relative="1" as="geometry">
            <mxPoint x="470" y="670" as="sourcePoint" />
            <mxPoint x="640" y="760" as="targetPoint" />
          </mxGeometry>
        </mxCell>
        <mxCell id="Q3GWjqxFdQ4QEtEUs8pQ-97" value="" style="endArrow=classic;html=1;rounded=0;entryX=0;entryY=0.5;entryDx=0;entryDy=0;" edge="1" parent="1">
          <mxGeometry width="50" height="50" relative="1" as="geometry">
            <mxPoint x="180" y="840" as="sourcePoint" />
            <mxPoint x="230" y="840" as="targetPoint" />
          </mxGeometry>
        </mxCell>
        <mxCell id="Q3GWjqxFdQ4QEtEUs8pQ-98" value="" style="endArrow=none;html=1;rounded=0;" edge="1" parent="1">
          <mxGeometry width="50" height="50" relative="1" as="geometry">
            <mxPoint x="640" y="760" as="sourcePoint" />
            <mxPoint x="640" y="250" as="targetPoint" />
          </mxGeometry>
        </mxCell>
        <mxCell id="Q3GWjqxFdQ4QEtEUs8pQ-99" value="" style="endArrow=classic;html=1;rounded=0;" edge="1" parent="1">
          <mxGeometry width="50" height="50" relative="1" as="geometry">
            <mxPoint x="640" y="250" as="sourcePoint" />
            <mxPoint x="600" y="250" as="targetPoint" />
          </mxGeometry>
        </mxCell>
        <mxCell id="Q3GWjqxFdQ4QEtEUs8pQ-100" value="" style="ellipse;whiteSpace=wrap;html=1;aspect=fixed;" vertex="1" parent="1">
          <mxGeometry x="232.5" y="822.5" width="40" height="40" as="geometry" />
        </mxCell>
        <mxCell id="Q3GWjqxFdQ4QEtEUs8pQ-101" value="END" style="ellipse;whiteSpace=wrap;html=1;aspect=fixed;fillColor=none;" vertex="1" parent="1">
          <mxGeometry x="230" y="820" width="45" height="45" as="geometry" />
        </mxCell>
      </root>
    </mxGraphModel>
  </diagram>
</mxfile>
